<svg width="17" height="18" viewBox="0 0 17 18" fill="none" xmlns="http://www.w3.org/2000/svg">
<path d="M14.3838 17.3335H3.18381C2.54729 17.3335 1.93684 17.0806 1.48676 16.6306C1.03667 16.1805 0.783813 15.57 0.783813 14.9335V2.1335C0.783813 1.92132 0.868099 1.71784 1.01813 1.56781C1.16816 1.41778 1.37164 1.3335 1.58381 1.3335H12.7838C12.996 1.3335 13.1995 1.41778 13.3495 1.56781C13.4995 1.71784 13.5838 1.92132 13.5838 2.1335V11.7335H16.7838V14.9335C16.7838 15.57 16.531 16.1805 16.0809 16.6306C15.6308 17.0806 15.0203 17.3335 14.3838 17.3335ZM13.5838 13.3335V14.9335C13.5838 15.1457 13.6681 15.3492 13.8181 15.4992C13.9682 15.6492 14.1716 15.7335 14.3838 15.7335C14.596 15.7335 14.7995 15.6492 14.9495 15.4992C15.0995 15.3492 15.1838 15.1457 15.1838 14.9335V13.3335H13.5838ZM11.9838 15.7335V2.9335H2.38381V14.9335C2.38381 15.1457 2.4681 15.3492 2.61813 15.4992C2.76816 15.6492 2.97164 15.7335 3.18381 15.7335H11.9838ZM3.98381 5.3335H10.3838V6.9335H3.98381V5.3335ZM3.98381 8.5335H10.3838V10.1335H3.98381V8.5335ZM3.98381 11.7335H7.98381V13.3335H3.98381V11.7335Z" fill="#4F61E8"/>
</svg>
