<?xml version="1.0" encoding="utf-8"?>
<!-- Generator: Adobe Illustrator 16.2.1, SVG Export Plug-In . SVG Version: 6.00 Build 0)  -->
<!DOCTYPE svg PUBLIC "-//W3C//DTD SVG 1.1//EN" "http://www.w3.org/Graphics/SVG/1.1/DTD/svg11.dtd">
<svg version="1.1" id="圖層_1" xmlns="http://www.w3.org/2000/svg" xmlns:xlink="http://www.w3.org/1999/xlink" x="0px" y="0px"
	 width="18px" height="18px" viewBox="0 0 18 18" enable-background="new 0 0 18 18" xml:space="preserve">
<path fill="#4F61E8" d="M10.516,0.25c-0.002,0-0.004,0-0.006,0C9.904,0.252,9.354,0.493,8.845,0.84
	C7.954,1.454,7.119,2.437,6.279,3.649C3.78,7.281,1.332,13.042,0.074,16.76l0,0c-0.066,0.196-0.047,0.4,0.038,0.572
	c0,0,0,0.001,0,0.001l0,0c0.085,0.172,0.236,0.312,0.432,0.378l0,0l0,0c0.08,0.026,0.16,0.039,0.24,0.039
	c0.313,0,0.605-0.197,0.71-0.51l0,0c0.925-2.745,2.564-6.724,4.339-9.972C6.72,5.645,7.644,4.202,8.5,3.204
	c0.427-0.499,0.837-0.885,1.191-1.126c0.267-0.183,0.492-0.277,0.663-0.312c0.006,0.045,0.01,0.102,0.01,0.167
	c0,0.006,0,0.012,0,0.018l0,0l0,0l0,0l0,0l0,0l0,0c0,0.006,0,0.012,0,0.018c0,0.52-0.2,1.467-0.521,2.561
	C9.356,6.201,8.613,8.26,7.987,10.18c-0.032,0.098-0.063,0.194-0.095,0.291c-0.275,0.857-0.523,1.682-0.711,2.437
	c-0.208,0.842-0.346,1.587-0.348,2.24l0,0l0,0l0,0l0,0c0.004,0.424,0.049,0.825,0.279,1.215c0.115,0.192,0.291,0.374,0.509,0.491
	c0.216,0.118,0.458,0.168,0.687,0.168c0.002,0,0.003,0,0.005,0c0.5,0,0.931-0.22,1.269-0.497c0.595-0.493,1.033-1.196,1.46-1.986
	c0.631-1.183,1.191-2.578,1.713-3.647c0.257-0.533,0.509-0.983,0.714-1.253c0.003-0.003,0.005-0.006,0.007-0.009
	c0.007,0.079,0.012,0.167,0.012,0.262c0,0.019-0.001,0.038-0.001,0.059l0,0l0,0l0,0l0,0l0,0l0,0c0,0.004,0,0.008,0,0.013
	c0,0.556-0.088,1.314-0.18,2.07l0,0c-0.092,0.767-0.189,1.526-0.19,2.17l0,0l0,0l0,0l0,0c0.003,0.34,0.019,0.644,0.135,0.972
	c0.061,0.162,0.155,0.344,0.336,0.503c0.003,0.003,0.006,0.005,0.008,0.007c0.173,0.153,0.432,0.248,0.659,0.248l0,0l0,0
	c0.006,0,0.013,0,0.019,0c0.634-0.001,1.16-0.295,1.551-0.643c0.591-0.528,0.979-1.211,1.254-1.77
	c0.271-0.559,0.412-0.995,0.42-1.018c0.011-0.033,0.02-0.067,0.025-0.102c0.007-0.043,0.011-0.087,0.011-0.13l0,0l0,0l0,0l0,0l0,0
	c0-0.316-0.202-0.61-0.52-0.713c-0.076-0.024-0.154-0.036-0.23-0.036c-0.316,0-0.611,0.202-0.714,0.52l-0.007,0.021
	c-0.043,0.129-0.289,0.809-0.664,1.402c-0.186,0.296-0.403,0.567-0.609,0.736c-0.061,0.05-0.118,0.091-0.172,0.123
	c-0.001-0.028-0.002-0.057-0.002-0.087c0-0.011,0.001-0.022,0.001-0.034l0,0l0,0l0,0l0,0l0,0l0,0c0-0.004,0-0.008,0-0.011
	c0-0.263,0.024-0.595,0.062-0.965c0.032-0.317,0.074-0.663,0.117-1.014c0.092-0.769,0.189-1.564,0.19-2.264l0,0l0,0l0,0l0,0
	c-0.004-0.434-0.028-0.826-0.179-1.221c-0.077-0.195-0.196-0.404-0.403-0.575c-0.2-0.169-0.484-0.267-0.741-0.267
	c-0.006,0-0.012,0-0.018,0c-0.001,0-0.001,0-0.002,0c-0.252,0-0.48,0.079-0.663,0.184c-0.345,0.202-0.574,0.476-0.797,0.785
	c-0.38,0.542-0.717,1.234-1.065,1.989c-0.518,1.128-1.049,2.394-1.589,3.331c-0.267,0.468-0.54,0.85-0.771,1.076
	c-0.115,0.113-0.218,0.188-0.292,0.226l-0.099,0.029c-0.017-0.069-0.034-0.184-0.034-0.335c0-0.008,0-0.016,0-0.023l0,0l0,0l0,0l0,0
	l0,0l0,0l0,0l0,0l0,0l0,0l0,0l0,0c0-0.007,0-0.014,0-0.021c0-0.578,0.202-1.558,0.523-2.676c0.486-1.707,1.228-3.772,1.853-5.671
	c0.013-0.037,0.024-0.074,0.037-0.111c0.298-0.91,0.568-1.78,0.769-2.564l0,0l0,0c0.208-0.818,0.347-1.531,0.35-2.153l0,0l0,0l0,0
	l0,0l0,0l0,0l0,0l0,0l0,0l0,0l0,0l0,0c-0.004-0.342-0.035-0.67-0.202-1.001c-0.015-0.028-0.029-0.056-0.046-0.084
	c-0.001-0.003-0.003-0.005-0.005-0.008c-0.104-0.173-0.264-0.341-0.464-0.45c-0.144-0.08-0.3-0.126-0.453-0.146
	c-0.001,0-0.001,0-0.001,0c-0.003,0-0.006,0-0.009-0.001c0,0-0.001,0-0.002,0c-0.01-0.001-0.02-0.002-0.028-0.003
	c-0.001,0-0.001,0-0.001,0c-0.031-0.003-0.062-0.005-0.093-0.006C10.545,0.25,10.53,0.25,10.516,0.25"/>
</svg>
