<svg width="17" height="17" viewBox="0 0 17 17" fill="none" xmlns="http://www.w3.org/2000/svg">
<path fill-rule="evenodd" clip-rule="evenodd" d="M3.81537 15.1666C3.68276 15.1666 3.55558 15.114 3.46182 15.0202C3.36805 14.9264 3.31537 14.7992 3.31537 14.6666C3.31537 14.534 3.36805 14.4069 3.46182 14.3131C3.55558 14.2193 3.68276 14.1666 3.81537 14.1666H13.482C13.6146 14.1666 13.7418 14.2193 13.8356 14.3131C13.9294 14.4069 13.982 14.534 13.982 14.6666C13.982 14.7992 13.9294 14.9264 13.8356 15.0202C13.7418 15.114 13.6146 15.1666 13.482 15.1666H3.81537ZM3.96204 6.14663C3.87372 6.24142 3.82563 6.36678 3.82792 6.49632C3.8302 6.62585 3.88268 6.74944 3.97429 6.84105C4.0659 6.93266 4.18949 6.98513 4.31902 6.98742C4.44855 6.9897 4.57392 6.94162 4.6687 6.8533L7.98204 3.53997V11.6666C7.98204 11.7992 8.03471 11.9264 8.12848 12.0202C8.22225 12.114 8.34943 12.1666 8.48204 12.1666C8.61464 12.1666 8.74182 12.114 8.83559 12.0202C8.92936 11.9264 8.98204 11.7992 8.98204 11.6666V3.53997L12.2954 6.8533C12.3411 6.90243 12.3963 6.94183 12.4577 6.96916C12.519 6.99648 12.5852 7.01118 12.6524 7.01236C12.7195 7.01355 12.7862 7.0012 12.8484 6.97605C12.9107 6.9509 12.9672 6.91347 13.0147 6.86599C13.0622 6.81851 13.0996 6.76196 13.1248 6.6997C13.1499 6.63744 13.1623 6.57076 13.1611 6.50362C13.1599 6.43648 13.1452 6.37028 13.1179 6.30894C13.0906 6.24761 13.0512 6.19241 13.002 6.14663L8.83537 1.97997C8.74162 1.88633 8.61454 1.83374 8.48204 1.83374C8.34953 1.83374 8.22245 1.88633 8.1287 1.97997L3.96204 6.14663Z" fill="white"/>
</svg>
