<?xml version="1.0" encoding="utf-8"?>
<!-- Generator: Adobe Illustrator 16.2.1, SVG Export Plug-In . SVG Version: 6.00 Build 0)  -->
<!DOCTYPE svg PUBLIC "-//W3C//DTD SVG 1.1//EN" "http://www.w3.org/Graphics/SVG/1.1/DTD/svg11.dtd">
<svg version="1.1" id="圖層_1" xmlns="http://www.w3.org/2000/svg" xmlns:xlink="http://www.w3.org/1999/xlink" x="0px" y="0px"
	 width="17px" height="16px" viewBox="0 0 17 16" enable-background="new 0 0 17 16" xml:space="preserve">
<path fill="#4F61E8" d="M15.43,5.867h-0.641c-0.117,0-0.225-0.123-0.271-0.246
	c-0.054-0.117-0.063-0.277,0.021-0.357l0.453-0.454c0.533-0.528,0.555-1.354,0.037-1.877l-1.174-1.178
	c-0.522-0.512-1.351-0.491-1.889,0.042L11.52,2.245c-0.059,0.064-0.203,0.08-0.324,0.038c-0.149-0.048-0.277-0.181-0.277-0.288
	v-0.64C10.917,0.582,10.357,0,9.615,0H7.952C7.21,0,6.65,0.582,6.65,1.354v0.64c0,0.107-0.128,0.24-0.277,0.288
	C6.25,2.325,6.106,2.31,6.048,2.245L5.6,1.797C5.061,1.264,4.234,1.243,3.712,1.755L2.539,2.933C2.021,3.456,2.043,4.283,2.576,4.81
	L3.03,5.264c0.085,0.08,0.075,0.24,0.021,0.357C3.002,5.744,2.896,5.867,2.778,5.867h-0.64c-0.757,0-1.355,0.571-1.355,1.301v1.664
	c0,0.73,0.598,1.301,1.355,1.301h0.64c0.118,0,0.219,0.117,0.267,0.23c0.054,0.117,0.069,0.277-0.016,0.373l-0.454,0.453
	c-0.25,0.25-0.395,0.576-0.411,0.916c-0.021,0.362,0.118,0.705,0.374,0.967l1.173,1.173c0.267,0.262,0.613,0.39,0.971,0.379
	c0.336-0.017,0.661-0.165,0.917-0.416l0.448-0.448c0.069-0.074,0.203-0.102,0.373-0.021c0.054,0.021,0.102,0.049,0.139,0.091
	c0.038,0.031,0.091,0.097,0.091,0.177v0.629C6.65,15.402,7.221,16,7.952,16h1.664c0.731,0,1.302-0.598,1.302-1.365v-0.629
	c0-0.08,0.055-0.145,0.091-0.177c0.037-0.042,0.087-0.069,0.14-0.091c0.17-0.08,0.305-0.053,0.373,0.021l0.447,0.448
	c0.256,0.251,0.581,0.398,0.918,0.416c0.356,0.011,0.703-0.117,0.971-0.379l1.174-1.174c0.256-0.262,0.395-0.604,0.373-0.965
	c-0.016-0.342-0.16-0.668-0.41-0.918l-0.453-0.453c-0.086-0.096-0.07-0.256-0.018-0.373c0.049-0.112,0.149-0.229,0.268-0.229h0.641
	c0.758,0,1.354-0.569,1.354-1.301V7.168C16.783,6.438,16.188,5.867,15.43,5.867z M15.717,8.832c0,0.188-0.182,0.234-0.287,0.234
	h-0.641c-0.527,0-1.008,0.33-1.242,0.863c-0.234,0.528-0.16,1.127,0.191,1.516l0.049,0.053l0.447,0.449
	c0.063,0.059,0.102,0.139,0.106,0.207c0,0.063-0.021,0.111-0.069,0.16l-1.174,1.174c-0.048,0.053-0.102,0.068-0.16,0.068
	c-0.074,0-0.148-0.037-0.213-0.105l-0.447-0.448c-0.246-0.245-0.582-0.379-0.944-0.379c-0.202,0-0.421,0.048-0.608,0.134
	c-0.164,0.062-0.336,0.176-0.469,0.309c-0.262,0.252-0.404,0.588-0.404,0.939v0.629c0,0.111-0.049,0.299-0.235,0.299H7.952
	c-0.187,0-0.234-0.188-0.234-0.299v-0.629c0-0.354-0.144-0.688-0.405-0.939c-0.133-0.133-0.304-0.244-0.47-0.309
	c-0.187-0.086-0.405-0.134-0.608-0.134c-0.363,0-0.699,0.134-0.944,0.379l-0.448,0.448c-0.064,0.068-0.139,0.105-0.213,0.105
	c-0.059,0-0.112-0.017-0.16-0.068l-1.173-1.174c-0.048-0.049-0.069-0.097-0.069-0.16c0.005-0.068,0.042-0.148,0.106-0.207
	l0.448-0.449l0.048-0.053c0.352-0.389,0.427-0.986,0.192-1.516C3.787,9.396,3.307,9.066,2.778,9.066h-0.64
	c-0.107,0-0.288-0.049-0.288-0.234V7.168c0-0.187,0.181-0.235,0.288-0.235h0.64c0.539,0,1.035-0.352,1.259-0.901
	c0.224-0.544,0.128-1.142-0.25-1.525L3.328,4.053C3.296,4.021,3.136,3.845,3.296,3.686l1.168-1.173
	C4.603,2.38,4.768,2.475,4.842,2.555L5.29,3.003C5.637,3.35,6.191,3.467,6.703,3.296c0.598-0.192,1.014-0.73,1.014-1.301v-0.64
	c0-0.133,0.064-0.288,0.234-0.288h1.664c0.172,0,0.234,0.154,0.234,0.288v0.64c0,0.571,0.416,1.109,1.014,1.301
	c0.513,0.171,1.066,0.053,1.414-0.293l0.447-0.448c0.074-0.08,0.239-0.176,0.379-0.042l1.168,1.173c0.16,0.16,0,0.336-0.031,0.368
	l-0.459,0.454c-0.379,0.384-0.475,0.981-0.252,1.525c0.225,0.549,0.721,0.901,1.26,0.901h0.641c0.105,0,0.287,0.048,0.287,0.235
	V8.832z"/>
<path fill="#4F61E8" d="M8.784,11.2c-1.765,0-3.2-1.435-3.2-3.2c0-1.765,1.435-3.2,3.2-3.2
	c1.765,0,3.2,1.435,3.2,3.2C11.984,9.766,10.549,11.2,8.784,11.2z M8.784,5.867C7.607,5.867,6.65,6.824,6.65,8
	c0,1.177,0.957,2.133,2.133,2.133c1.177,0,2.133-0.956,2.133-2.133C10.917,6.824,9.961,5.867,8.784,5.867z"/>
</svg>
