<svg width="20" height="25" viewBox="0 0 20 25" fill="none" xmlns="http://www.w3.org/2000/svg">
<path d="M2.91916 24.9479H17.3192C17.9557 24.9479 18.5661 24.695 19.0162 24.2449C19.4663 23.7948 19.7192 23.1844 19.7192 22.5479V8.14788L12.5192 0.947876H2.91916C2.28265 0.947876 1.6722 1.20073 1.22211 1.65082C0.772021 2.10091 0.519165 2.71136 0.519165 3.34788V22.5479C0.519165 23.1844 0.772021 23.7948 1.22211 24.2449C1.6722 24.695 2.28265 24.9479 2.91916 24.9479ZM11.3192 3.34788L17.3192 9.34788H11.3192V3.34788ZM5.91916 11.7479C6.15562 11.748 6.38975 11.7946 6.60818 11.8852C6.82661 11.9757 7.02506 12.1084 7.1922 12.2757C7.35935 12.4429 7.49192 12.6415 7.58233 12.86C7.67275 13.0785 7.71924 13.3126 7.71916 13.5491C7.71909 13.7855 7.67243 14.0197 7.58187 14.2381C7.49131 14.4565 7.35861 14.655 7.19136 14.8221C7.0241 14.9893 6.82556 15.1218 6.60707 15.2122C6.38858 15.3027 6.15442 15.3492 5.91796 15.3491C5.44041 15.3489 4.98249 15.1591 4.64492 14.8213C4.30736 14.4835 4.11781 14.0254 4.11796 13.5479C4.11812 13.0703 4.30798 12.6124 4.64577 12.2748C4.98356 11.9373 5.44162 11.7477 5.91916 11.7479ZM6.51916 17.7479L8.43556 19.3835L11.3192 14.1479L16.1192 21.3479H4.11916L6.51916 17.7479Z" fill="white"/>
</svg>
