<svg width="25" height="25" viewBox="0 0 25 25" fill="none" xmlns="http://www.w3.org/2000/svg">
<path d="M8.16898 15.7161C7.94818 15.7161 7.79938 15.7377 7.72258 15.7593V17.1729C7.81378 17.1945 7.92778 17.2005 8.08498 17.2005C8.65978 17.2005 9.01378 16.9101 9.01378 16.4193C9.01378 15.9801 8.70898 15.7161 8.16898 15.7161ZM12.3534 15.7305C12.1134 15.7305 11.9574 15.7521 11.865 15.7737V18.9057C11.9574 18.9273 12.1062 18.9273 12.2406 18.9273C13.221 18.9345 13.8594 18.3945 13.8594 17.2521C13.8666 16.2561 13.2846 15.7305 12.3534 15.7305Z" fill="white"/>
<path d="M15.0487 0.5H5.44868C4.81216 0.5 4.20171 0.752856 3.75162 1.20294C3.30153 1.65303 3.04868 2.26348 3.04868 2.9V22.1C3.04868 22.7365 3.30153 23.347 3.75162 23.7971C4.20171 24.2471 4.81216 24.5 5.44868 24.5H19.8487C20.4852 24.5 21.0956 24.2471 21.5457 23.7971C21.9958 23.347 22.2487 22.7365 22.2487 22.1V7.7L15.0487 0.5ZM9.64628 17.528C9.27548 17.876 8.72828 18.032 8.09108 18.032C7.96752 18.0333 7.84403 18.0261 7.72148 18.0104V19.7216H6.64868V14.9984C7.13282 14.9262 7.62202 14.8933 8.11148 14.9C8.77988 14.9 9.25508 15.0272 9.57548 15.2828C9.88028 15.5252 10.0867 15.9224 10.0867 16.3904C10.0855 16.8608 9.92948 17.258 9.64628 17.528ZM14.2147 19.154C13.7107 19.5728 12.9439 19.772 12.0067 19.772C11.4451 19.772 11.0479 19.736 10.7779 19.7V14.9996C11.2622 14.9289 11.7512 14.8956 12.2407 14.9C13.1491 14.9 13.7395 15.0632 14.2003 15.4112C14.6983 15.7808 15.0103 16.37 15.0103 17.216C15.0103 18.1316 14.6755 18.764 14.2147 19.154ZM18.6487 15.824H16.8103V16.9172H18.5287V17.798H16.8103V19.7228H15.7231V14.936H18.6487V15.824ZM15.0487 8.9H13.8487V2.9L19.8487 8.9H15.0487Z" fill="white"/>
</svg>
