<svg width="17" height="17" viewBox="0 0 17 17" fill="none" xmlns="http://www.w3.org/2000/svg">
<path d="M11.5543 2.07272L15.3256 5.84405C15.4506 5.96907 15.5208 6.13861 15.5208 6.31538C15.5208 6.49216 15.4506 6.6617 15.3256 6.78672L10.1396 11.9727L8.72626 12.444L7.78293 13.3867C7.65791 13.5117 7.48837 13.5819 7.31159 13.5819C7.13482 13.5819 6.96528 13.5117 6.84026 13.3867L4.01159 10.5581C3.88661 10.433 3.8164 10.2635 3.8164 10.0867C3.8164 9.90994 3.88661 9.7404 4.01159 9.61538L4.95426 8.67272L5.42559 7.25872L10.6116 2.07272C10.7366 1.94774 10.9061 1.87753 11.0829 1.87753C11.2597 1.87753 11.4292 1.94774 11.5543 2.07272ZM12.0256 4.43005L7.78293 8.67272L8.72559 9.61538L12.9683 5.37272L12.0256 4.43005ZM3.77559 11.7367L5.66159 13.6227L4.71893 14.5654L1.89026 13.6227L3.77559 11.7367Z" fill="#4F61E8"/>
</svg>
